<svg width="873" height="508" viewBox="0 0 873 508" fill="none" xmlns="http://www.w3.org/2000/svg">
<path d="M129.87 64.0313C129.87 76.9499 119.41 87.4225 106.507 87.4225C93.6044 87.4225 83.1445 76.9499 83.1445 64.0313C83.1445 51.1126 93.6044 40.64 106.507 40.64C119.41 40.64 129.87 51.1126 129.87 64.0313Z" fill="#63BF8C"/>
<path d="M195.161 63.8993L185.161 58.1258L185.161 69.6728L195.161 63.8993ZM138.14 64.8993L186.161 64.8993L186.161 62.8993L138.14 62.8993L138.14 64.8993Z" fill="#506481"/>
<path d="M306.201 7.86584L306.201 15.4838L309.201 15.4838L309.201 7.86584L306.201 7.86584ZM306.201 22.5939L306.201 37.8299L309.201 37.8299L309.201 22.5939L306.201 22.5939ZM306.201 44.94L306.201 60.1759L309.201 60.1759L309.201 44.94L306.201 44.94ZM306.201 67.286L306.201 82.5219L309.201 82.5219L309.201 67.286L306.201 67.286ZM306.201 89.632L306.201 104.868L309.201 104.868L309.201 89.632L306.201 89.632ZM306.201 111.978L306.201 127.214L309.201 127.214L309.201 111.978L306.201 111.978ZM306.201 134.324L306.201 149.56L309.201 149.56L309.201 134.324L306.201 134.324ZM306.201 156.67L306.201 171.906L309.201 171.906L309.201 156.67L306.201 156.67ZM306.201 179.016L306.201 194.252L309.201 194.252L309.201 179.016L306.201 179.016ZM306.201 201.362L306.201 216.598L309.201 216.598L309.201 201.362L306.201 201.362ZM306.201 223.708L306.201 238.944L309.201 238.944L309.201 223.708L306.201 223.708ZM306.201 246.054L306.201 261.29L309.201 261.29L309.201 246.054L306.201 246.054ZM306.201 268.4L306.201 283.636L309.201 283.636L309.201 268.4L306.201 268.4ZM306.201 290.746L306.201 305.982L309.201 305.982L309.201 290.746L306.201 290.746ZM306.201 313.092L306.201 328.328L309.201 328.328L309.201 313.092L306.201 313.092ZM306.201 335.438L306.201 350.674L309.201 350.674L309.201 335.438L306.201 335.438ZM306.201 357.784L306.201 373.02L309.201 373.02L309.201 357.784L306.201 357.784ZM306.201 380.131L306.201 395.366L309.201 395.366L309.201 380.131L306.201 380.131ZM306.201 402.477L306.201 417.712L309.201 417.712L309.201 402.477L306.201 402.477ZM306.201 424.823L306.201 440.059L309.201 440.059L309.201 424.823L306.201 424.823ZM306.201 447.169L306.201 462.405L309.201 462.405L309.201 447.169L306.201 447.169ZM306.201 469.515L306.201 484.751L309.201 484.751L309.201 469.515L306.201 469.515ZM306.201 491.861L306.201 499.479L309.201 499.479L309.201 491.861L306.201 491.861Z" fill="#7B8BA1"/>
<path d="M510.463 7.86584L510.463 15.4838L513.463 15.4838L513.463 7.86584L510.463 7.86584ZM510.463 22.5939L510.463 37.8299L513.463 37.8299L513.463 22.5939L510.463 22.5939ZM510.463 44.94L510.463 60.1759L513.463 60.1759L513.463 44.94L510.463 44.94ZM510.463 67.286L510.463 82.5219L513.463 82.5219L513.463 67.286L510.463 67.286ZM510.463 89.632L510.463 104.868L513.463 104.868L513.463 89.632L510.463 89.632ZM510.463 111.978L510.463 127.214L513.463 127.214L513.463 111.978L510.463 111.978ZM510.463 134.324L510.463 149.56L513.463 149.56L513.463 134.324L510.463 134.324ZM510.463 156.67L510.463 171.906L513.463 171.906L513.463 156.67L510.463 156.67ZM510.463 179.016L510.463 194.252L513.463 194.252L513.463 179.016L510.463 179.016ZM510.463 201.362L510.463 216.598L513.463 216.598L513.463 201.362L510.463 201.362ZM510.463 223.708L510.463 238.944L513.463 238.944L513.463 223.708L510.463 223.708ZM510.463 246.054L510.463 261.29L513.463 261.29L513.463 246.054L510.463 246.054ZM510.463 268.4L510.463 283.636L513.463 283.636L513.463 268.4L510.463 268.4ZM510.463 290.746L510.463 305.982L513.463 305.982L513.463 290.746L510.463 290.746ZM510.463 313.092L510.463 328.328L513.463 328.328L513.463 313.092L510.463 313.092ZM510.463 335.438L510.463 350.674L513.463 350.674L513.463 335.438L510.463 335.438ZM510.463 357.784L510.463 373.02L513.463 373.02L513.463 357.784L510.463 357.784ZM510.463 380.131L510.463 395.366L513.463 395.366L513.463 380.131L510.463 380.131ZM510.463 402.477L510.463 417.712L513.463 417.712L513.463 402.477L510.463 402.477ZM510.463 424.823L510.463 440.059L513.463 440.059L513.463 424.823L510.463 424.823ZM510.463 447.169L510.463 462.405L513.463 462.405L513.463 447.169L510.463 447.169ZM510.463 469.515L510.463 484.751L513.463 484.751L513.463 469.515L510.463 469.515ZM510.463 491.861L510.463 499.479L513.463 499.479L513.463 491.861L510.463 491.861Z" fill="#7B8BA1"/>
<path d="M733.711 7.86584L733.711 15.4838L736.711 15.4838L736.711 7.86584L733.711 7.86584ZM733.711 22.5939L733.711 37.8299L736.711 37.8299L736.711 22.5939L733.711 22.5939ZM733.711 44.94L733.711 60.1759L736.711 60.1759L736.711 44.94L733.711 44.94ZM733.711 67.286L733.711 82.5219L736.711 82.5219L736.711 67.286L733.711 67.286ZM733.711 89.632L733.711 104.868L736.711 104.868L736.711 89.632L733.711 89.632ZM733.711 111.978L733.711 127.214L736.711 127.214L736.711 111.978L733.711 111.978ZM733.711 134.324L733.711 149.56L736.711 149.56L736.711 134.324L733.711 134.324ZM733.711 156.67L733.711 171.906L736.711 171.906L736.711 156.67L733.711 156.67ZM733.711 179.016L733.711 194.252L736.711 194.252L736.711 179.016L733.711 179.016ZM733.711 201.362L733.711 216.598L736.711 216.598L736.711 201.362L733.711 201.362ZM733.711 223.708L733.711 238.944L736.711 238.944L736.711 223.708L733.711 223.708ZM733.711 246.054L733.711 261.29L736.711 261.29L736.711 246.054L733.711 246.054ZM733.711 268.4L733.711 283.636L736.711 283.636L736.711 268.4L733.711 268.4ZM733.711 290.746L733.711 305.982L736.711 305.982L736.711 290.746L733.711 290.746ZM733.711 313.092L733.711 328.328L736.711 328.328L736.711 313.092L733.711 313.092ZM733.711 335.438L733.711 350.674L736.711 350.674L736.711 335.438L733.711 335.438ZM733.711 357.784L733.711 373.02L736.711 373.02L736.711 357.784L733.711 357.784ZM733.711 380.131L733.711 395.366L736.711 395.366L736.711 380.131L733.711 380.131ZM733.711 402.477L733.711 417.712L736.711 417.712L736.711 402.477L733.711 402.477ZM733.711 424.823L733.711 440.059L736.711 440.059L736.711 424.823L733.711 424.823ZM733.711 447.169L733.711 462.405L736.711 462.405L736.711 447.169L733.711 447.169ZM733.711 469.515L733.711 484.751L736.711 484.751L736.711 469.515L733.711 469.515ZM733.711 491.861L733.711 499.479L736.711 499.479L736.711 491.861L733.711 491.861Z" fill="#7B8BA1"/>
<path d="M68.6563 379V256H871V379H68.6563ZM871 252H68.6563V129H871V252ZM68.6563 383H871V494C871 500.627 865.627 506 859 506H68.6563V383ZM64.6563 381V506H14C7.37258 506 2 500.627 2 494V14C2 7.37258 7.37258 2 14 2H64.6563V127V254V381ZM68.6563 125V2H859C865.627 2 871 7.37258 871 14V125H68.6563Z" stroke="#506481" stroke-width="4"/>
<ellipse cx="793.938" cy="61.9801" rx="23.3627" ry="23.3913" fill="#EE535E"/>
<mask id="path-8-inside-1_4163_454" fill="white">
<rect width="43.5842" height="43.5842" rx="5" transform="matrix(0.706674 0.707539 -0.706674 0.707539 600.354 288.624)"/>
</mask>
<rect width="43.5842" height="43.5842" rx="5" transform="matrix(0.706674 0.707539 -0.706674 0.707539 600.354 288.624)" fill="#C292C1" stroke="#C292C1" stroke-width="28" mask="url(#path-8-inside-1_4163_454)"/>
<path d="M761.397 64.2374L751.397 58.4639L751.397 70.0109L761.397 64.2374ZM648.791 65.2374L752.397 65.2374L752.397 63.2374L648.791 63.2374L648.791 65.2374Z" fill="#506481"/>
<path d="M600 410L605.774 400L594.226 400L600 410ZM599 351L599 401L601 401L601 351L599 351Z" fill="#506481"/>
<path d="M569.575 319.221L559.575 313.447L559.575 324.994L569.575 319.221ZM423.58 320.221L560.575 320.221L560.575 318.221L423.58 318.221L423.58 320.221Z" fill="#506481"/>
<path d="M600.346 110.777L594.572 120.777L606.119 120.777L600.346 110.777ZM601.346 288.413L601.346 119.777L599.346 119.777L599.346 288.413L601.346 288.413Z" fill="#506481"/>
<path d="M795.52 94.7175L789.747 104.718H801.294L795.52 94.7175ZM640.936 449.531H781.52V447.531H640.936L640.936 449.531ZM796.52 434.531V103.718H794.52V434.531H796.52ZM781.52 449.531C789.805 449.531 796.52 442.815 796.52 434.531H794.52C794.52 441.711 788.7 447.531 781.52 447.531V449.531Z" fill="#506481"/>
<path d="M349.881 321.134L339.881 315.36L339.881 326.907L349.881 321.134ZM247.067 321.134L247.067 322.134L247.067 321.134ZM232.067 237.941L232.067 307.134L234.067 307.134L234.067 237.941L232.067 237.941ZM247.067 322.134L340.881 322.134L340.881 320.134L247.067 320.134L247.067 322.134ZM232.067 307.134C232.067 315.418 238.782 322.134 247.067 322.134L247.067 320.134C239.887 320.134 234.067 314.314 234.067 307.134L232.067 307.134Z" fill="#506481"/>
<path d="M232.066 110.777L232.066 116.699L234.066 116.699L234.066 110.777L232.066 110.777ZM232.066 122.225L232.066 134.069L234.066 134.069L234.066 122.225L232.066 122.225ZM232.066 139.596L232.066 145.518L234.066 145.518L234.066 139.596L232.066 139.596Z" fill="#506481"/>
<g filter="url(#filter0_d_4163_454)">
<path d="M633.675 24.9082H581.555C580.001 24.9082 578.74 26.1701 578.74 27.7268V100.695C578.74 102.252 580.001 103.514 581.555 103.514H633.675C635.23 103.514 636.49 102.252 636.49 100.695V27.7268C636.49 26.1701 635.23 24.9082 633.675 24.9082Z" fill="white"/>
<path d="M633.675 24.9082H581.555C580.001 24.9082 578.74 26.1701 578.74 27.7268V100.695C578.74 102.252 580.001 103.514 581.555 103.514H633.675C635.23 103.514 636.49 102.252 636.49 100.695V27.7268C636.49 26.1701 635.23 24.9082 633.675 24.9082Z" stroke="white" stroke-miterlimit="10"/>
</g>
<path opacity="0.5" d="M599.502 34.0981H584.156C583.628 34.0981 583.2 34.5266 583.2 35.0551V50.7081C583.2 51.2366 583.628 51.6651 584.156 51.6651H599.502C600.03 51.6651 600.458 51.2366 600.458 50.7081V35.0551C600.458 34.5266 600.03 34.0981 599.502 34.0981Z" fill="#6C63FF"/>
<path d="M624.177 62.3627H591.063C590.452 62.3627 589.957 62.8586 589.957 63.4704V65.1288C589.957 65.7406 590.452 66.2366 591.063 66.2366H624.177C624.788 66.2366 625.284 65.7406 625.284 65.1288V63.4704C625.284 62.8586 624.788 62.3627 624.177 62.3627Z" fill="#6C63FF"/>
<path d="M624.177 70.1957H591.063C590.452 70.1957 589.957 70.6916 589.957 71.3034V72.9618C589.957 73.5736 590.452 74.0696 591.063 74.0696H624.177C624.788 74.0696 625.284 73.5736 625.284 72.9618V71.3034C625.284 70.6916 624.788 70.1957 624.177 70.1957Z" fill="#6C63FF"/>
<g filter="url(#filter1_d_4163_454)">
<path d="M259.196 152.072H207.077C205.522 152.072 204.262 153.334 204.262 154.891V227.859C204.262 229.416 205.522 230.678 207.077 230.678H259.196C260.751 230.678 262.011 229.416 262.011 227.859V154.891C262.011 153.334 260.751 152.072 259.196 152.072Z" fill="white"/>
<path d="M259.196 152.072H207.077C205.522 152.072 204.262 153.334 204.262 154.891V227.859C204.262 229.416 205.522 230.678 207.077 230.678H259.196C260.751 230.678 262.011 229.416 262.011 227.859V154.891C262.011 153.334 260.751 152.072 259.196 152.072Z" stroke="white" stroke-miterlimit="10"/>
</g>
<path opacity="0.5" d="M248.786 161.249H217.35C216.268 161.249 215.392 161.681 215.392 162.213V177.983C215.392 178.515 216.268 178.947 217.35 178.947H248.786C249.868 178.947 250.745 178.515 250.745 177.983V162.213C250.745 161.681 249.868 161.249 248.786 161.249Z" fill="#3A9BFB"/>
<path opacity="0.5" d="M248.786 203.855H217.35C216.268 203.855 215.392 204.287 215.392 204.82V220.589C215.392 221.122 216.268 221.554 217.35 221.554H248.786C249.868 221.554 250.745 221.122 250.745 220.589V204.82C250.745 204.287 249.868 203.855 248.786 203.855Z" fill="#3A9BFB"/>
<path d="M249.697 189.527H216.583C215.972 189.527 215.477 190.023 215.477 190.634V192.293C215.477 192.905 215.972 193.401 216.583 193.401H249.697C250.308 193.401 250.803 192.905 250.803 192.293V190.634C250.803 190.023 250.308 189.527 249.697 189.527Z" fill="#3A9BFB"/>
<g filter="url(#filter2_d_4163_454)">
<path d="M628.437 415.577H576.317C574.762 415.577 573.502 416.839 573.502 418.395V491.364C573.502 492.92 574.762 494.182 576.317 494.182H628.437C629.991 494.182 631.252 492.92 631.252 491.364V418.395C631.252 416.839 629.991 415.577 628.437 415.577Z" fill="white"/>
<path d="M628.437 415.577H576.317C574.762 415.577 573.502 416.839 573.502 418.395V491.364C573.502 492.92 574.762 494.182 576.317 494.182H628.437C629.991 494.182 631.252 492.92 631.252 491.364V418.395C631.252 416.839 629.991 415.577 628.437 415.577Z" stroke="white" stroke-miterlimit="10"/>
</g>
<path opacity="0.5" d="M620.222 427.775H584.535C584.007 427.775 583.579 428.204 583.579 428.732V444.385C583.579 444.914 584.007 445.342 584.535 445.342H620.222C620.75 445.342 621.177 444.914 621.177 444.385V428.732C621.177 428.204 620.75 427.775 620.222 427.775Z" fill="#EB8846"/>
<path opacity="0.5" d="M620.222 453.306H584.535C584.007 453.306 583.579 453.735 583.579 454.263V469.916C583.579 470.445 584.007 470.873 584.535 470.873H620.222C620.75 470.873 621.177 470.445 621.177 469.916V454.263C621.177 453.735 620.75 453.306 620.222 453.306Z" fill="#EB8846"/>
<path d="M590.399 485.032H583.08C581.695 485.032 580.572 486.156 580.572 487.542V487.942C580.572 489.329 581.695 490.453 583.08 490.453H590.399C591.784 490.453 592.907 489.329 592.907 487.942V487.542C592.907 486.156 591.784 485.032 590.399 485.032Z" fill="#EB8846"/>
<path d="M606.042 485.032H598.722C597.337 485.032 596.215 486.156 596.215 487.542V487.942C596.215 489.329 597.337 490.453 598.722 490.453H606.042C607.426 490.453 608.549 489.329 608.549 487.942V487.542C608.549 486.156 607.426 485.032 606.042 485.032Z" fill="#EB8846"/>
<path d="M621.681 485.032H614.362C612.977 485.032 611.854 486.156 611.854 487.542V487.942C611.854 489.329 612.977 490.453 614.362 490.453H621.681C623.066 490.453 624.189 489.329 624.189 487.942V487.542C624.189 486.156 623.066 485.032 621.681 485.032Z" fill="#EB8846"/>
<g filter="url(#filter3_d_4163_454)">
<path d="M411.337 275.959H359.217C357.663 275.959 356.402 277.221 356.402 278.777V351.746C356.402 353.303 357.663 354.564 359.217 354.564H411.337C412.892 354.564 414.152 353.303 414.152 351.746V278.777C414.152 277.221 412.892 275.959 411.337 275.959Z" fill="white"/>
<path d="M411.337 275.959H359.217C357.663 275.959 356.402 277.221 356.402 278.777V351.746C356.402 353.303 357.663 354.564 359.217 354.564H411.337C412.892 354.564 414.152 353.303 414.152 351.746V278.777C414.152 277.221 412.892 275.959 411.337 275.959Z" stroke="white" stroke-miterlimit="10"/>
</g>
<path opacity="0.5" d="M398.307 288.236H372.546C372.018 288.236 371.59 288.664 371.59 289.193V301.988C371.59 302.516 372.018 302.945 372.546 302.945H398.307C398.835 302.945 399.263 302.516 399.263 301.988V289.193C399.263 288.664 398.835 288.236 398.307 288.236Z" fill="#F2CA4D"/>
<path d="M401.765 316.73H368.651C368.04 316.73 367.545 317.226 367.545 317.838V319.496C367.545 320.108 368.04 320.604 368.651 320.604H401.765C402.376 320.604 402.872 320.108 402.872 319.496V317.838C402.872 317.226 402.376 316.73 401.765 316.73Z" fill="#F2CA4D"/>
<path d="M401.765 323.953H368.651C368.04 323.953 367.545 324.449 367.545 325.061V326.719C367.545 327.331 368.04 327.827 368.651 327.827H401.765C402.376 327.827 402.872 327.331 402.872 326.719V325.061C402.872 324.449 402.376 323.953 401.765 323.953Z" fill="#F2CA4D"/>
<g filter="url(#filter4_d_4163_454)">
<path d="M259.196 24.9082H207.077C205.522 24.9082 204.262 26.1701 204.262 27.7268V100.695C204.262 102.252 205.522 103.514 207.077 103.514H259.196C260.751 103.514 262.011 102.252 262.011 100.695V27.7268C262.011 26.1701 260.751 24.9082 259.196 24.9082Z" fill="white"/>
<path d="M259.196 24.9082H207.077C205.522 24.9082 204.262 26.1701 204.262 27.7268V100.695C204.262 102.252 205.522 103.514 207.077 103.514H259.196C260.751 103.514 262.011 102.252 262.011 100.695V27.7268C262.011 26.1701 260.751 24.9082 259.196 24.9082Z" stroke="white" stroke-miterlimit="10"/>
</g>
<path opacity="0.5" d="M251.923 44.7172H214.35C211.769 44.7172 209.676 46.8125 209.676 49.3973V64.9782C209.676 67.5629 211.769 69.6583 214.35 69.6583H251.923C254.504 69.6583 256.597 67.5629 256.597 64.9782V49.3973C256.597 46.8125 254.504 44.7172 251.923 44.7172Z" fill="#6C63FF"/>
<path d="M245.696 79.8314H220.576C219.965 79.8314 219.47 80.3274 219.47 80.9392V82.5976C219.47 83.2094 219.965 83.7053 220.576 83.7053H245.696C246.307 83.7053 246.803 83.2094 246.803 82.5976V80.9392C246.803 80.3274 246.307 79.8314 245.696 79.8314Z" fill="#6C63FF"/>
<defs>
<filter id="filter0_d_4163_454" x="574.24" y="24.4082" width="66.75" height="87.6056" filterUnits="userSpaceOnUse" color-interpolation-filters="sRGB">
<feFlood flood-opacity="0" result="BackgroundImageFix"/>
<feColorMatrix in="SourceAlpha" type="matrix" values="0 0 0 0 0 0 0 0 0 0 0 0 0 0 0 0 0 0 127 0" result="hardAlpha"/>
<feOffset dy="4"/>
<feGaussianBlur stdDeviation="2"/>
<feColorMatrix type="matrix" values="0 0 0 0 0 0 0 0 0 0 0 0 0 0 0 0 0 0 0.25 0"/>
<feBlend mode="normal" in2="BackgroundImageFix" result="effect1_dropShadow_4163_454"/>
<feBlend mode="normal" in="SourceGraphic" in2="effect1_dropShadow_4163_454" result="shape"/>
</filter>
<filter id="filter1_d_4163_454" x="199.762" y="151.572" width="66.75" height="87.6056" filterUnits="userSpaceOnUse" color-interpolation-filters="sRGB">
<feFlood flood-opacity="0" result="BackgroundImageFix"/>
<feColorMatrix in="SourceAlpha" type="matrix" values="0 0 0 0 0 0 0 0 0 0 0 0 0 0 0 0 0 0 127 0" result="hardAlpha"/>
<feOffset dy="4"/>
<feGaussianBlur stdDeviation="2"/>
<feColorMatrix type="matrix" values="0 0 0 0 0 0 0 0 0 0 0 0 0 0 0 0 0 0 0.25 0"/>
<feBlend mode="normal" in2="BackgroundImageFix" result="effect1_dropShadow_4163_454"/>
<feBlend mode="normal" in="SourceGraphic" in2="effect1_dropShadow_4163_454" result="shape"/>
</filter>
<filter id="filter2_d_4163_454" x="569.002" y="415.077" width="66.75" height="87.6055" filterUnits="userSpaceOnUse" color-interpolation-filters="sRGB">
<feFlood flood-opacity="0" result="BackgroundImageFix"/>
<feColorMatrix in="SourceAlpha" type="matrix" values="0 0 0 0 0 0 0 0 0 0 0 0 0 0 0 0 0 0 127 0" result="hardAlpha"/>
<feOffset dy="4"/>
<feGaussianBlur stdDeviation="2"/>
<feColorMatrix type="matrix" values="0 0 0 0 0 0 0 0 0 0 0 0 0 0 0 0 0 0 0.25 0"/>
<feBlend mode="normal" in2="BackgroundImageFix" result="effect1_dropShadow_4163_454"/>
<feBlend mode="normal" in="SourceGraphic" in2="effect1_dropShadow_4163_454" result="shape"/>
</filter>
<filter id="filter3_d_4163_454" x="351.902" y="275.459" width="66.75" height="87.6056" filterUnits="userSpaceOnUse" color-interpolation-filters="sRGB">
<feFlood flood-opacity="0" result="BackgroundImageFix"/>
<feColorMatrix in="SourceAlpha" type="matrix" values="0 0 0 0 0 0 0 0 0 0 0 0 0 0 0 0 0 0 127 0" result="hardAlpha"/>
<feOffset dy="4"/>
<feGaussianBlur stdDeviation="2"/>
<feColorMatrix type="matrix" values="0 0 0 0 0 0 0 0 0 0 0 0 0 0 0 0 0 0 0.25 0"/>
<feBlend mode="normal" in2="BackgroundImageFix" result="effect1_dropShadow_4163_454"/>
<feBlend mode="normal" in="SourceGraphic" in2="effect1_dropShadow_4163_454" result="shape"/>
</filter>
<filter id="filter4_d_4163_454" x="199.762" y="24.4082" width="66.75" height="87.6056" filterUnits="userSpaceOnUse" color-interpolation-filters="sRGB">
<feFlood flood-opacity="0" result="BackgroundImageFix"/>
<feColorMatrix in="SourceAlpha" type="matrix" values="0 0 0 0 0 0 0 0 0 0 0 0 0 0 0 0 0 0 127 0" result="hardAlpha"/>
<feOffset dy="4"/>
<feGaussianBlur stdDeviation="2"/>
<feColorMatrix type="matrix" values="0 0 0 0 0 0 0 0 0 0 0 0 0 0 0 0 0 0 0.25 0"/>
<feBlend mode="normal" in2="BackgroundImageFix" result="effect1_dropShadow_4163_454"/>
<feBlend mode="normal" in="SourceGraphic" in2="effect1_dropShadow_4163_454" result="shape"/>
</filter>
</defs>
</svg>
