<svg width="25" height="25" viewBox="0 0 25 25" fill="none" xmlns="http://www.w3.org/2000/svg">
<path d="M12.425 14.9802L3.48202 23.9231C3.14742 24.2577 2.72157 24.425 2.20446 24.425C1.68734 24.425 1.26149 24.2577 0.926888 23.9231C0.592287 23.5885 0.424988 23.1627 0.424988 22.6456C0.424988 22.1285 0.592287 21.7026 0.926888 21.368L9.86985 12.425L0.926888 3.48208C0.592287 3.14748 0.424988 2.72163 0.424988 2.20452C0.424988 1.68741 0.592287 1.26155 0.926888 0.926949C1.26149 0.592348 1.68734 0.425049 2.20446 0.425049C2.72157 0.425049 3.14742 0.592348 3.48202 0.926949L12.425 9.86992L21.368 0.926949C21.7026 0.592348 22.1284 0.425049 22.6455 0.425049C23.1626 0.425049 23.5885 0.592348 23.9231 0.926949C24.2577 1.26155 24.425 1.68741 24.425 2.20452C24.425 2.72163 24.2577 3.14748 23.9231 3.48208L14.9801 12.425L23.9231 21.368C24.2577 21.7026 24.425 22.1285 24.425 22.6456C24.425 23.1627 24.2577 23.5885 23.9231 23.9231C23.5885 24.2577 23.1626 24.425 22.6455 24.425C22.1284 24.425 21.7026 24.2577 21.368 23.9231L12.425 14.9802Z" fill="white"/>
</svg>
